<?xml version="1.0" standalone="no"?>
<!DOCTYPE svg PUBLIC "-//W3C//DTD SVG 20010904//EN"
 "http://www.w3.org/TR/2001/REC-SVG-20010904/DTD/svg10.dtd">
<svg version="1.0" xmlns="http://www.w3.org/2000/svg"
 width="177.000000pt" height="192.000000pt" viewBox="0 0 177.000000 192.000000"
 preserveAspectRatio="xMidYMid meet">
<metadata>
Created by potrace 1.14, written by Peter Selinger 2001-2017
</metadata>
<g transform="translate(0.000000,192.000000) scale(0.100000,-0.100000)"
fill="#000000" stroke="none">
<path d="M1485 1401 c-47 -28 -85 -78 -126 -166 -59 -126 -91 -259 -94 -393
-2 -112 -2 -114 -31 -138 -34 -28 -59 -30 -68 -7 -4 9 1 68 11 131 16 111 16
115 -2 128 -10 8 -29 14 -41 14 -12 0 -27 7 -34 15 -18 22 -46 19 -102 -12
-110 -60 -187 -235 -143 -328 35 -72 114 -83 191 -27 l39 28 31 -33 c40 -42
68 -42 130 0 l49 32 29 -33 c27 -31 33 -33 70 -27 36 5 156 62 179 85 10 9
-12 90 -25 90 -5 0 -24 -11 -42 -25 -18 -13 -49 -31 -69 -40 -34 -14 -37 -14
-47 4 -22 42 -9 82 84 264 69 134 98 204 111 261 35 155 -10 233 -100 177z
m25 -122 c0 -17 -11 -64 -25 -105 -28 -82 -103 -239 -111 -231 -10 10 18 162
43 232 25 70 65 135 84 135 5 0 9 -14 9 -31z m-420 -366 c-1 -34 -41 -179 -57
-205 -25 -44 -69 -51 -79 -13 -16 63 31 170 89 206 34 20 47 24 47 12z"/>
<path d="M503 1366 c-135 -43 -240 -179 -277 -358 -18 -89 -20 -154 -6 -253
37 -259 168 -359 299 -227 60 61 83 127 90 257 l6 99 38 8 c101 21 203 108
227 193 24 87 -13 188 -89 238 -78 52 -201 70 -288 43z m204 -111 c124 -62
103 -214 -36 -256 -23 -7 -44 -9 -48 -5 -6 6 10 105 22 139 16 42 -59 55 -99
18 -25 -24 -46 -88 -46 -140 0 -36 -1 -36 -41 -15 -39 20 -59 12 -59 -24 0
-32 30 -65 74 -82 l29 -10 -5 -103 c-7 -151 -44 -222 -107 -202 -36 11 -55 80
-59 223 -6 202 22 319 99 407 68 78 180 98 276 50z"/>
</g>
</svg>
